<mxfile host="app.diagrams.net" modified="2023-11-09T09:19:43.139Z" agent="Mozilla/5.0 (Macintosh; Intel Mac OS X 10_15_7) AppleWebKit/537.36 (KHTML, like Gecko) Chrome/116.0.0.0 Safari/537.36" version="22.0.6" etag="G3MpTlBFAMJvArNniwmI" type="github">
  <diagram name="Page-1" id="S2vxYsxs_yd4ifcnR0Se">
    <mxGraphModel>
      <root>
        <mxCell id="0" />
        <mxCell id="1" parent="0" />
      </root>
    </mxGraphModel>
  </diagram>
</mxfile>
